# xmcd
#
# Track frame offsets: 
#        150
#        62659
#        90949
#        114001
#        135404
#        185999
#        203451
#        245919
#
# Disc length: 3535 seconds
#
# Revision: 0
# Processed by: cddbd v1.5.2PL0 Copyright (c) Steve Scherf et al.
# Submitted via: ExactAudioCopy v1.3
#
DISCID=640dcd08
DTITLE=Buddy Guy and Stevie Ray Vaughan - Lone Star Cafe [disk 2]
DYEAR=1986
DGENRE=Chicago Blues, Electric Blues
TTITLE0=Miss You ( Fades In )
TTITLE1=Slow Blues Instrumental
TTITLE2=Blue Guitar
TTITLE3=Blind Man
TTITLE4=Worry Worry *
TTITLE5=Mary Had A Little Lamb *
TTITLE6=Stormy Monday - Early In The Mo
TTITLE7=Champagne and Reefer *
EXTD=
EXTT0=
EXTT1=
EXTT2=
EXTT3=
EXTT4=
EXTT5=
EXTT6=
EXTT7=
PLAYORDER=
